<svg id="Component_331_1" data-name="Component 331 – 1" xmlns="http://www.w3.org/2000/svg" xmlns:xlink="http://www.w3.org/1999/xlink" width="633.39" height="362" viewBox="0 0 633.39 362">
  <defs>
    <clipPath id="clip-path">
      <rect id="Rectangle_1034" data-name="Rectangle 1034" width="266.001" height="134.372" fill="#3e404d"/>
    </clipPath>
  </defs>
  <ellipse id="Ellipse_24" data-name="Ellipse 24" cx="71.694" cy="71.695" rx="71.694" ry="71.695" transform="translate(0 8.797)" fill="#3d3e48"/>
  <path id="Path_1014" data-name="Path 1014" d="M212.832,574.271c-2.781-.722-5.632-1.313-7.438-3.564a95.545,95.545,0,0,1-6.126-9.163,1.761,1.761,0,0,1,.384-1.664c5.925-4.624,9.426-10.945,12.529-17.57a13.881,13.881,0,0,1,1.744-2.737,15.6,15.6,0,0,0,3.514-10.08c-.005-2.924-1-4.226-3.547-5.014,0-.39-.019-.794.005-1.194.225-4.1.741-8.2.629-12.3-.2-7.5-3.3-13.66-9.673-17.878-6.516-4.316-13.729-5.513-21.417-4.577-10.846,1.321-22.748,8.353-22.342,24.745.093,3.751.409,7.493.623,11.255-2.394.689-3.353,1.878-3.429,4.764a15.5,15.5,0,0,0,3.372,10.124,16.887,16.887,0,0,1,1.949,3.086c2.8,5.917,5.925,11.6,10.881,16.052,2.5,2.24,2.556,2.268.909,5.236a42.507,42.507,0,0,1-3.245,4.984,13.189,13.189,0,0,1-8.9,5.39c-1.488.211-2.965.533-4.426.889a83.184,83.184,0,0,0-13.685,4.319,71.676,71.676,0,0,0,85.228.063C224.545,577.648,218.73,575.806,212.832,574.271Z" transform="translate(-116.109 -441.265)" fill="#52535e"/>
  <rect id="Rectangle_1022" data-name="Rectangle 1022" width="151" height="18" rx="9" transform="translate(8.389 339)" fill="#3e404d"/>
  <rect id="Rectangle_1023" data-name="Rectangle 1023" width="105" height="17" rx="8.5" transform="translate(214.389 17)" fill="#3e404d"/>
  <rect id="Rectangle_1024" data-name="Rectangle 1024" width="162" height="17" rx="8.5" transform="translate(214.389 84)" fill="#3e404d"/>
  <rect id="Rectangle_1025" data-name="Rectangle 1025" width="97" height="17" rx="8.5" transform="translate(218.389 166)" fill="#3e404d"/>
  <rect id="Rectangle_1026" data-name="Rectangle 1026" width="97" height="17" rx="8.5" transform="translate(367.389 166)" fill="#3e404d"/>
  <rect id="Rectangle_1027" data-name="Rectangle 1027" width="97" height="17" rx="8.5" transform="translate(526.389 166)" fill="#3e404d"/>
  <rect id="Rectangle_1028" data-name="Rectangle 1028" width="354" height="29" rx="14.5" transform="translate(246.389 272)" fill="#3e404d"/>
  <rect id="Rectangle_1029" data-name="Rectangle 1029" width="134" height="29" rx="14.5" transform="translate(246.389 333)" fill="#3e404d"/>
  <g id="Group_1284" data-name="Group 1284" transform="translate(367.389)">
    <g id="Group_1284-2" data-name="Group 1284" clip-path="url(#clip-path)">
      <path id="Path_1199" data-name="Path 1199" d="M128.2,128.43c-1.622-1.114-.579-4.393-4.387-3.466l3.388-2.6c-5.829-2.18-9.273-6.686-13.34-10.807l-1.488,1.253c-4.17-1.182.178-3.8-1.012-5.938a68.889,68.889,0,0,0-7.571.1c-.8.087-1.634,1.3-2.155,2.175-1.013,1.7-1.665,3.64-2.8,5.243-.317.447-1.859.263-2.747.026-2.94-.784-5.792-1.975-8.767-2.526-2.279-.422-4.693-.1-7.047-.141-.449-.008-1.058-.021-1.318-.294-2.106-2.212-3.126-.265-4.334,1.057-.862.943-1.746,1.866-2.593,2.768-1.949-1.186-3.737-3.176-5.3-3.015-2.37.244-3.737-1.013-5.487-1.78-.121-.053-.187-.229-.395-.5.97-2.343,1.66-4.612,4.263-6.34,3.114-2.068,4.52-5.839,4.613-9.625.125-5.113-.463-10.133-3.7-14.487-1.443-1.938-1.766-4.2-1.8-6.731-.035-2.5-1.254-5-2.057-7.472-.484-1.484-1.357-2.857-1.725-4.36-.931-3.8-1.492-7.7-2.554-11.46-.808-2.863-2.242-5.323-5.911-5.509-1.436-.073-2.778-1.349-4.244-1.6-4.106-.7-4.122-.6-5.037-4.981-.189-.9-.352-1.816-.587-2.708-.795-3.015-1.766-3.518-4.7-2.331a20.315,20.315,0,0,1-2-2.435,6.316,6.316,0,0,0-5.771-3.131c-3.427-.1-6.852.017-9.74-2.656-1.211-1.12-3.268-1.441-5.007-1.824-.751-.165-1.67.434-2.684.737a3.88,3.88,0,0,1-2.25-3.954c.056-3.193-1.108-5.392-4.493-6.293A17.819,17.819,0,0,1,.44,10.247,2.362,2.362,0,0,1,.113,8.1C.981,5.849,2.038,3.663,3.081,1.479A1.593,1.593,0,0,1,4.036.648C6.941.167,9.8-.557,12.772.7a49.885,49.885,0,0,0,7.552,2.353A3.92,3.92,0,0,0,22.8,2.4c1.482-.827,2.535-1.694,4.417-.136,1.729,1.433,4.272,1.878,6.44,2.8a3.022,3.022,0,0,1,.958.789c.442.486.731,1.2,1.265,1.494,1.26.685,2.771.975,3.912,1.8,1.328.958,2.211,1.561,4.042.672.933-.453,2.825.8,4.16,1.515,1.74.93,3.253,2.8,5.338.519.192-.21,1.7.309,1.7.468-.057,2.285,2.061,2.447,3.268,3.438a15.237,15.237,0,0,0,4.116,2.834,14.166,14.166,0,0,0,5.518.444c3.913,1.557,3.913,1.557,5.863-.6,2.3.852,4.507,2.14,6.817,2.374,1.9.192,3.929-.869,5.9-1.367.439-.111,1.05-.426,1.3-.248,2.2,1.538,3.888.311,5.754-.782,1.12-.656,2.3-1.144,3.285.867.627,1.285,2.538,2.033,3.988,2.8A49.247,49.247,0,0,0,105.469,24c1.254-2.44,2.441-2.137,5.139-2.079,3.3.072,4.8,3.008,7.647,3.5.764.13,1.569.7,1.192,2.217-.235.944,1.056,2.489,1.988,3.446a16.21,16.21,0,0,0,4.408,3.456,30.511,30.511,0,0,0,7.6,2.574c3.564.636,7.005.968,9.513,4.191.951,1.222,2.872,1.735,4.41,2.445,3.77,1.742,3.886,2.013,1.671,5.487-.45.7-1.025,1.328-1.565,2.018.6,1.674,1.683,2.165,3.567,2.155,1.393-.007,2.754,1.24,4.2,1.692.713.223,2.048.207,2.319-.21,1.236-1.9,3.294-1.828,5.05-2.42,1.365-.459,2.852-.562,4.207-1.044.486-.173.82-.953,1.09-1.52.9-1.889,1.866-3.373,4.458-2.931a35.534,35.534,0,0,0,5.859.062c.225-2.493.245-2.479,3.264-1.794a6.245,6.245,0,0,0,2.064-.047c3.161-.378,3.911.176,4.416,3.249.28,1.7.821,3.251,2.7,3.877a47.415,47.415,0,0,0,2.041-4.951c.605-2.082,3.229-3.109,4.641-1.43,1.361,1.619,2.6,2.169,4.661,1.516,2-.633,3.328.745,4.406,2.229,1.63,2.244,3.165,4.558,4.855,6.753.269.349,1.147.336,1.734.309,1.246-.056,2.483-.261,3.727-.347a12.034,12.034,0,0,0,2.255-.023c1.253-.345,2.287-.477,2.8,1.031a.6.6,0,0,0,.27.355c2.045.7,4.1,1.374,6.667,2.229-.179.751-.528,1.916-.725,3.107a14.093,14.093,0,0,0-.405,4.2c.216,1.458-.222,1.968-1.514,2.2a6.364,6.364,0,0,0-2.541.728c-1.826,1.325-1.53,3.55.362,4.854,1.336.92,2.443,2.174,3.779,3.1a4.717,4.717,0,0,0,2.8,1.069c2.609-.314,3.856.8,4.31,3.217a5.521,5.521,0,0,0,.527,1.19c2.863-.753,5.076-.11,6.386,1.921,1.515-.305,3.1-.7,4.7-.893.363-.044.9.52,1.2.92.992,1.31,1.021,3.656,3.8,2.9.692-.187,2.464.953,2.493,1.544a5.424,5.424,0,0,1-1.2,3.743c-1.774,1.8-3.529,3.851-6.505,3.883-1.108.012-1.7,2.538-1.157,4.2a6.881,6.881,0,0,1,.494,2.123c-.02,1.621.4,2.127,2.149,1.629a3.61,3.61,0,0,1,2.854.9c1.075.989-.876,1.447-.792,1.658a12.8,12.8,0,0,0,2.1,3.871,12.223,12.223,0,0,0,3.457,2.359c2.21,1.169,4.651,1.971,6.69,3.373,1.381.95,2.208,2.686,3.335,4.027,1.611,1.919-.078,2.989-.889,4.46a10.527,10.527,0,0,0-.7,3.975c-.168,1.777-.673,2.764-2.783,2.08-.617-.2-1.6.379-2.276.819a4.783,4.783,0,0,0-1.121,1.215A32.051,32.051,0,0,1,253,132.316a19.807,19.807,0,0,1-2.912-2.86c-1.677-1.7-5.7-2.156-7.936-1.283-1.062.415-2.442-.068-3.665.031-4.679.38-8.355-1.772-11.664-4.677-2.033-1.784.469-2.637,1.236-4.143-2.2-.465-4.439-.6-6.36-1.443-1.871-.824-3.417-2.382-5.258-3.729-1.624,1.532-3.039,1.154-4.642-.321-1.238-1.139-2.768-.836-4.081.379-2.653,2.456-5.152,5.165-8.12,7.168-2.625,1.771-5.512,4.775-9.164,1.017l-.459.457c.184,1.075.368,2.149.57,3.327a7.6,7.6,0,0,1-6.232-.253,2.279,2.279,0,0,0-2.059.323c-1.861,1.713-5.642,2.25-7.787.895-1.136-.718-2.054-1.59-3.644-.519-.6.4-2.107-.362-3.114-.8-1.116-.481-1.927-.958-2.684.614-.319.662-1.486,1.018-2.337,1.3-1.571.517-3.19.9-4.8,1.289a5.027,5.027,0,0,1-1.707.171c-2.779-.315-5.379-.1-7.46,2.087-.242.254-.777.6-.941.5a8.517,8.517,0,0,0-5.2-.834c-1.616.113-3.275-.4-5.4-.7-1.859-2.717-3.172-3.944-8.975-1.884" transform="translate(0 0)" fill="#3e404d"/>
    </g>
  </g>
</svg>
