<svg id="Component_36_1" data-name="Component 36 – 1" xmlns="http://www.w3.org/2000/svg" xmlns:xlink="http://www.w3.org/1999/xlink" width="59.86" height="59.86" viewBox="0 0 59.86 59.86">
  <defs>
    <clipPath id="clip-path">
      <rect id="Rectangle_860" data-name="Rectangle 860" width="59.86" height="59.86" fill="none"/>
    </clipPath>
  </defs>
  <g id="Group_1103" data-name="Group 1103" clip-path="url(#clip-path)">
    <path id="Path_1147" data-name="Path 1147" d="M29.93,4.476A25.453,25.453,0,1,1,4.476,29.93,25.482,25.482,0,0,1,29.93,4.476M29.93,0A29.93,29.93,0,1,0,59.86,29.93,29.93,29.93,0,0,0,29.93,0" transform="translate(0 0)" fill="#ffb668"/>
    <path id="Path_1148" data-name="Path 1148" d="M45.9,48.552c.036,1.412-.8,1.928-2.155,1.237-2.871-1.469-5.75-2.93-8.554-4.517a2.609,2.609,0,0,0-2.953.006c-2.644,1.5-5.374,2.86-8.071,4.273a6.789,6.789,0,0,1-.817.384c-1.133.41-1.913-.1-1.8-1.3.128-1.406.395-2.8.632-4.2.379-2.227.81-4.446,1.149-6.679a1.564,1.564,0,0,0-.41-1.161c-2.392-2.392-4.826-4.743-7.247-7.107a6.119,6.119,0,0,1-.5-.526c-.874-1.093-.545-2.038.851-2.276,2.02-.343,4.053-.612,6.079-.914,1.521-.226,3.037-.489,4.563-.663a1.2,1.2,0,0,0,1.056-.792c1.438-2.953,2.9-5.895,4.359-8.839.133-.27.251-.549.408-.806.722-1.182,1.779-1.2,2.448.016.739,1.346,1.382,2.745,2.062,4.122.921,1.865,1.817,3.742,2.778,5.587a1.436,1.436,0,0,0,.912.66c3.482.556,6.977,1.031,10.454,1.611.554.092,1.374.512,1.469.919a2.242,2.242,0,0,1-.683,1.694c-2.417,2.452-4.891,4.848-7.381,7.226a1.4,1.4,0,0,0-.439,1.441c.592,3.292,1.158,6.587,1.728,9.882.041.238.043.482.061.722" transform="translate(-3.73 -3.5)" fill="#ffb668"/>
  </g>
</svg>
