<svg id="Component_55_1" data-name="Component 55 – 1" xmlns="http://www.w3.org/2000/svg" width="35.752" height="32.388" viewBox="0 0 35.752 32.388">
  <path id="Path_1015" data-name="Path 1015" d="M401.308,373h-.574c-2.065,0-4.131.012-6.195-.01a4.523,4.523,0,0,1-1.4-.211,4.469,4.469,0,0,1-2.966-4.873,4.374,4.374,0,0,1,4.438-3.841c2.033-.006,4.066,0,6.1,0h.6c0-1.045,0-2.027,0-3.008A5.124,5.124,0,0,0,398.3,356.2a.543.543,0,0,1-.347-.58c.015-1.032.007-2.066.005-3.1a4.444,4.444,0,0,0-4.639-4.65q-4.6-.006-9.2,0c-4.5,0-8.992-.007-13.487,0a5.047,5.047,0,0,0-5.074,5.09q0,11.009.005,22.017a4.864,4.864,0,0,0,.138,1.223,5.074,5.074,0,0,0,4.158,3.956,5.016,5.016,0,0,0,.993.091q12.581.008,25.163,0a5.226,5.226,0,0,0,4.939-3.322A11.122,11.122,0,0,0,401.308,373Zm-30.546-17.308a2.8,2.8,0,0,1-.367-5.585c.175-.009.35-.006.524-.006,7.415,0,14.831.022,22.247-.019a2.379,2.379,0,0,1,2.562,2.562c-.06.993-.011,1.992-.011,3.05H395.2Q382.982,355.691,370.762,355.689Z" transform="translate(-365.558 -347.868)" fill="#4e5164"/>
  <path id="Path_1016" data-name="Path 1016" d="M402.96,372.632a2.244,2.244,0,0,0-1.5,2.47,2.153,2.153,0,0,0,2.148,1.9c2.128.007,4.255,0,6.382,0,.121,0,.242-.022.374-.036v-4.4a2.253,2.253,0,0,0-.226-.027q-3.334,0-6.668,0A1.709,1.709,0,0,0,402.96,372.632Zm1.827,2.158a1.11,1.11,0,0,1-1.138,1.094,1.111,1.111,0,0,1,.033-2.222A1.107,1.107,0,0,1,404.787,374.79Z" transform="translate(-374.633 -354.108)" fill="#4e5164"/>
</svg>
