<svg id="Component_28_1" data-name="Component 28 – 1" xmlns="http://www.w3.org/2000/svg" width="97.191" height="97.192" viewBox="0 0 97.191 97.192">
  <ellipse id="Ellipse_24" data-name="Ellipse 24" cx="48.595" cy="48.595" rx="48.595" ry="48.595" fill="#3d3e48"/>
  <path id="Path_1014" data-name="Path 1014" d="M191.024,546.551c-1.885-.49-3.817-.89-5.042-2.416a64.77,64.77,0,0,1-4.152-6.211,1.194,1.194,0,0,1,.261-1.128c4.016-3.134,6.389-7.418,8.492-11.909a9.406,9.406,0,0,1,1.182-1.856,10.576,10.576,0,0,0,2.382-6.832c0-1.982-.681-2.864-2.4-3.4,0-.264-.013-.538,0-.81.153-2.779.5-5.561.426-8.334a14.243,14.243,0,0,0-6.557-12.118,20.821,20.821,0,0,0-14.517-3.1c-7.351.9-15.419,5.661-15.144,16.772.063,2.542.277,5.079.422,7.629-1.623.467-2.272,1.273-2.324,3.229a10.505,10.505,0,0,0,2.285,6.862,11.448,11.448,0,0,1,1.321,2.092c1.895,4.011,4.016,7.863,7.376,10.88,1.692,1.519,1.733,1.537.616,3.549a28.817,28.817,0,0,1-2.2,3.378,8.94,8.94,0,0,1-6.032,3.653c-1.009.143-2.01.361-3,.6a56.374,56.374,0,0,0-9.276,2.927,48.583,48.583,0,0,0,57.768.043C198.963,548.84,195.021,547.592,191.024,546.551Z" transform="translate(-125.464 -462.362)" fill="#52535e"/>
</svg>
