<svg id="Component_53_6" data-name="Component 53 – 6" xmlns="http://www.w3.org/2000/svg" width="317.334" height="244.663" viewBox="0 0 317.334 244.663">
  <g id="Group_1261" data-name="Group 1261" transform="translate(112.834 70.023)">
    <path id="Path_1015" data-name="Path 1015" d="M479.194,427.743h-1.826c-6.564,0-13.129.038-19.69-.033a14.373,14.373,0,0,1-4.455-.67,14.206,14.206,0,0,1-9.427-15.49c1.2-7.369,6.751-12.189,14.105-12.21,6.464-.019,12.925,0,19.389,0h1.9c0-3.322.007-6.442,0-9.563-.026-7.1-3.282-12.22-9.553-15.423a1.725,1.725,0,0,1-1.1-1.843c.047-3.282.021-6.566.017-9.847-.014-8.71-6.046-14.77-14.746-14.782q-14.618-.018-29.237,0c-14.291,0-28.581-.024-42.869.012a16.042,16.042,0,0,0-16.129,16.181q-.007,34.992.017,69.985a15.463,15.463,0,0,0,.437,3.888c1.821,6.877,6.193,11.151,13.217,12.573a15.948,15.948,0,0,0,3.156.29q39.99.025,79.984.007a16.613,16.613,0,0,0,15.7-10.56C479.707,436.254,479.03,432.1,479.194,427.743ZM382.1,372.728c-4.642,0-8.066-2.581-9.178-6.836a8.851,8.851,0,0,1,8.012-10.916c.556-.028,1.111-.019,1.667-.019,23.57,0,47.143.069,70.714-.059,4.531-.024,8.456,2.976,8.145,8.143-.19,3.156-.036,6.333-.036,9.7h-1.643Q420.942,372.735,382.1,372.728Z" transform="translate(-365.558 -347.868)" fill="#4cc5c5"/>
    <path id="Path_1016" data-name="Path 1016" d="M406.282,372.832a7.134,7.134,0,0,0-4.763,7.853,6.844,6.844,0,0,0,6.829,6.053c6.763.021,13.524.009,20.287,0,.385,0,.769-.071,1.187-.114v-14a7.17,7.17,0,0,0-.717-.085q-10.6-.007-21.2.01A5.437,5.437,0,0,0,406.282,372.832Zm5.808,6.86a3.53,3.53,0,0,1-3.619,3.479,3.532,3.532,0,0,1,.1-7.062A3.518,3.518,0,0,1,412.09,379.692Z" transform="translate(-316.24 -313.952)" fill="#4cc5c5"/>
    <path id="Path_1017" data-name="Path 1017" d="M443.777,353.374a6.812,6.812,0,0,0-2.078-.254q-16.428-.021-32.853-.01-16.275,0-32.549,0a10.761,10.761,0,0,0-1.665.043,3.455,3.455,0,0,0-2.928,2.517,2.99,2.99,0,0,0,.952,3.431,5.446,5.446,0,0,0,3.021,1.042q33.154.086,66.311.043a7.5,7.5,0,0,0,1.059-.036,3.644,3.644,0,0,0,3.051-3.123A3.43,3.43,0,0,0,443.777,353.374Z" transform="translate(-357.353 -340.673)" fill="#4cc5c5"/>
  </g>
  <g id="Ellipse_59" data-name="Ellipse 59" transform="translate(13.334)" fill="none" stroke="#4e5164" stroke-width="4">
    <circle cx="15" cy="15" r="15" stroke="none"/>
    <circle cx="15" cy="15" r="13" fill="none"/>
  </g>
  <g id="Group_1262" data-name="Group 1262" transform="translate(120.009 -6.226)">
    <path id="Path_70" data-name="Path 70" d="M506.449-13.926l-1.975-1.98,7.933-7.93L504.427-31.8l2.02-2.014,7.914,7.925,7.932-7.937,1.972,1.991-7.909,7.893,7.974,7.969-2.009,2.012-7.923-7.93Z" transform="translate(-379.427 44.83)" fill="#4e5164"/>
  </g>
  <g id="Ellipse_60" data-name="Ellipse 60" transform="translate(279.334 186)" fill="none" stroke="#4e5164" stroke-width="6">
    <circle cx="19" cy="19" r="19" stroke="none"/>
    <circle cx="19" cy="19" r="16" fill="none"/>
  </g>
  <g id="Group_1263" data-name="Group 1263" transform="matrix(0.966, -0.259, 0.259, 0.966, 0, 213.378)">
    <path id="Path_1015-2" data-name="Path 1015" d="M401.308,373h-.574c-2.065,0-4.131.012-6.195-.01a4.523,4.523,0,0,1-1.4-.211,4.469,4.469,0,0,1-2.966-4.873,4.374,4.374,0,0,1,4.438-3.841c2.033-.006,4.066,0,6.1,0h.6c0-1.045,0-2.027,0-3.008A5.124,5.124,0,0,0,398.3,356.2a.543.543,0,0,1-.347-.58c.015-1.032.007-2.066.005-3.1a4.444,4.444,0,0,0-4.639-4.65q-4.6-.006-9.2,0c-4.5,0-8.992-.007-13.487,0a5.047,5.047,0,0,0-5.074,5.09q0,11.009.005,22.017a4.864,4.864,0,0,0,.138,1.223,5.074,5.074,0,0,0,4.158,3.956,5.016,5.016,0,0,0,.993.091q12.581.008,25.163,0a5.226,5.226,0,0,0,4.939-3.322A11.122,11.122,0,0,0,401.308,373Zm-30.546-17.308a2.8,2.8,0,0,1-.367-5.585c.175-.009.35-.006.524-.006,7.415,0,14.831.022,22.247-.019a2.379,2.379,0,0,1,2.562,2.562c-.06.993-.011,1.992-.011,3.05H395.2Q382.982,355.691,370.762,355.689Z" transform="translate(-365.558 -347.868)" fill="#4e5164"/>
    <path id="Path_1016-2" data-name="Path 1016" d="M402.96,372.632a2.244,2.244,0,0,0-1.5,2.47,2.153,2.153,0,0,0,2.148,1.9c2.128.007,4.255,0,6.382,0,.121,0,.242-.022.374-.036v-4.4a2.253,2.253,0,0,0-.226-.027q-3.334,0-6.668,0A1.709,1.709,0,0,0,402.96,372.632Zm1.827,2.158a1.11,1.11,0,0,1-1.138,1.094,1.111,1.111,0,0,1,.033-2.222A1.107,1.107,0,0,1,404.787,374.79Z" transform="translate(-374.632 -354.108)" fill="#4e5164"/>
    <path id="Path_1017-2" data-name="Path 1017" d="M394.257,353.187a2.143,2.143,0,0,0-.654-.08q-5.168-.007-10.336,0h-10.24a3.382,3.382,0,0,0-.524.014,1.087,1.087,0,0,0-.921.792.941.941,0,0,0,.3,1.08,1.714,1.714,0,0,0,.95.328q10.43.027,20.862.013a2.358,2.358,0,0,0,.333-.011,1.147,1.147,0,0,0,.96-.982A1.079,1.079,0,0,0,394.257,353.187Z" transform="translate(-367.067 -349.192)" fill="#4e5164"/>
  </g>
</svg>
