<svg id="Component_33_6" data-name="Component 33 – 6" xmlns="http://www.w3.org/2000/svg" width="81.353" height="54.97" viewBox="0 0 81.353 54.97">
  <path id="Path_1025" data-name="Path 1025" d="M198.985,418.645a3.755,3.755,0,0,0-2.025-3.419c-3.78-2.046-7.561-4.09-11.357-6.1a1.221,1.221,0,0,0-.97,0,11.581,11.581,0,0,1-10.909-.007,1.226,1.226,0,0,0-.969.011c-2.326,1.233-4.64,2.487-6.958,3.736,1.956,1.055,3.909,2.109,5.889,3.18a9.1,9.1,0,0,1,4.847,8.05c0,.119,0,.233,0,.351h2.651q1.137,0,2.274,0,7.276,0,14.552,0a2.669,2.669,0,0,0,2.974-2.982C198.994,420.525,199.012,419.584,198.985,418.645Z" transform="translate(-117.647 -377.304)" fill="#7bc2b3"/>
  <path id="Path_1026" data-name="Path 1026" d="M185.426,405.082a11.778,11.778,0,0,0,4.09-9.248,12.335,12.335,0,0,0-1.716-6.506c-3.663-6.3-11.559-6.946-16.135-1.324a12.8,12.8,0,0,0,.667,16.363A9.3,9.3,0,0,0,185.426,405.082Z" transform="translate(-117.738 -376.605)" fill="#7bc2b3"/>
  <path id="Path_1027" data-name="Path 1027" d="M171.255,424.269a5.211,5.211,0,0,0-2.812-4.748q-4.068-2.2-8.141-4.4-3.809-2.05-7.629-4.079a1.127,1.127,0,0,0-.113-.039,16.466,16.466,0,0,1-17.619.013,1.079,1.079,0,0,0-.108.037c-5.236,2.776-10.448,5.594-15.662,8.409a5.294,5.294,0,0,0-2.911,4.945c-.011,1.137,0,2.273,0,3.41-.007,3.2,1.287,4.5,4.526,4.5q5.745,0,11.492,0h11.493q1.579,0,3.158,0h.16l11.079,0q4.484,0,8.967-.007c2.7,0,4.119-1.438,4.131-4.139.006-1.227.024-2.455,0-3.682C171.255,424.424,171.257,424.346,171.255,424.269Z" transform="translate(-116.255 -377.359)" fill="#7bc2b3"/>
  <path id="Path_1028" data-name="Path 1028" d="M136.378,406.075a5.27,5.27,0,0,1,1.924.518,12.2,12.2,0,0,0,11.673.006,5.328,5.328,0,0,1,1.89-.524c.277-.205.553-.414.821-.642,3.919-3.341,5.605-7.759,5.678-12.842a17.113,17.113,0,0,0-2.384-9.033,13.256,13.256,0,0,0-22.4-1.84,17.777,17.777,0,0,0,.925,22.721A14.77,14.77,0,0,0,136.378,406.075Z" transform="translate(-116.639 -376.387)" fill="#7bc2b3"/>
</svg>
