<svg id="Component_13_16" data-name="Component 13 – 16" xmlns="http://www.w3.org/2000/svg" width="50" height="44.011" viewBox="0 0 50 44.011">
  <path id="Path_392" data-name="Path 392" d="M1159.038,266.906a13.506,13.506,0,0,0-13.026,1.379,16.914,16.914,0,0,1-.005,21.651,13.477,13.477,0,0,0,20.074-5.6A13.225,13.225,0,0,0,1159.038,266.906Zm1.427,13.63h-.034a1.907,1.907,0,0,1-1.915-1.863,4.294,4.294,0,0,0-3.154-4.072,1.893,1.893,0,0,1-1.316-2.344,1.918,1.918,0,0,1,2.368-1.3,8.07,8.07,0,0,1,5.933,7.652A1.9,1.9,0,0,1,1160.465,280.536Zm-22.494-13.63a13.465,13.465,0,0,0-17.61,6.969,13.223,13.223,0,0,0,7.04,17.429,13.466,13.466,0,0,0,17.612-6.97A13.225,13.225,0,0,0,1137.971,266.906Zm1.426,13.63h-.033a1.908,1.908,0,0,1-1.915-1.864,4.347,4.347,0,0,0-3.154-4.071,1.893,1.893,0,0,1-1.316-2.344,1.919,1.919,0,0,1,2.368-1.3,8.071,8.071,0,0,1,5.933,7.653A1.906,1.906,0,0,1,1139.4,280.536Zm-1.974-19.982,5.477-5.84,5.479,5.84a1.929,1.929,0,0,0,2.707.1,1.882,1.882,0,0,0,.1-2.679l-6.883-7.338a1.989,1.989,0,0,0-2.808,0l-6.882,7.338a1.883,1.883,0,0,0,.1,2.679A1.931,1.931,0,0,0,1137.423,260.554Zm26.156-6.546a19.594,19.594,0,0,0-16.228-5.488l21.771,21.548A19.144,19.144,0,0,0,1163.579,254.008Z" transform="translate(-1119.273 -248.37)" fill="#e660a7"/>
</svg>
