<svg id="Component_8_15" data-name="Component 8 – 15" xmlns="http://www.w3.org/2000/svg" width="56.706" height="57.133" viewBox="0 0 56.706 57.133">
  <path id="Path_413" data-name="Path 413" d="M1611.84,370.616a13.727,13.727,0,0,1,4.633-10.148c3.731-3.271,7.373-6.643,11.123-9.892a7.522,7.522,0,0,1,2.852-1.478,2.641,2.641,0,0,1,3.023,1.375,6.274,6.274,0,0,1,.831,1.9c1.154,5.359,2.393,10.706,3.339,16.1a11.883,11.883,0,0,1-3.531,10.925c-3.991,3.879-8.245,7.49-12.426,11.171a5.149,5.149,0,0,1-2.076,1.079,3.183,3.183,0,0,1-3.968-2.461c-.546-1.824-.9-3.707-1.3-5.573q-1.175-5.51-2.3-11.031A18.877,18.877,0,0,1,1611.84,370.616Zm14.84-12.309a2.694,2.694,0,0,0,0,.455c.143.823.319,1.676,1.233,1.97a1.954,1.954,0,0,0,2.166-.834,5.241,5.241,0,0,0,1.289-4.646c-.389-1.708-1.779-2.107-3.057-.881A5.7,5.7,0,0,0,1626.68,358.307Zm-3.342,23.607c.063-1.345-.416-2.355-1.236-2.605s-1.822.272-2.557,1.374a5.669,5.669,0,0,0-.939,3.808,1.916,1.916,0,0,0,1.171,1.8,1.814,1.814,0,0,0,1.975-.618A5.445,5.445,0,0,0,1623.338,381.914Z" transform="translate(-1581.138 -336.515)" fill="#dc955f"/>
  <path id="Path_414" data-name="Path 414" d="M1481.3,306.579a35.554,35.554,0,0,1-3.728-.767c-4.844-1.528-9.669-3.118-14.489-4.721a7.745,7.745,0,0,1-2.108-1.044,2.986,2.986,0,0,1-.88-4.187,7.408,7.408,0,0,1,1.442-1.747c3.842-3.473,7.645-6.993,11.591-10.344a12.666,12.666,0,0,1,12.333-2.592c5.044,1.493,10.02,3.22,15.01,4.887a6.563,6.563,0,0,1,1.982,1.089,2.911,2.911,0,0,1,.763,3.924,7.752,7.752,0,0,1-1.535,1.9q-5.552,5.033-11.165,10A14.07,14.07,0,0,1,1481.3,306.579Zm-.5-10.75a5.659,5.659,0,0,0,3.9-1.407,2.592,2.592,0,0,0,.736-1.646c-.009-.758-.724-1.143-1.433-1.341a5.659,5.659,0,0,0-4.4.647c-1.129.628-1.7,1.507-1.462,2.291.318,1.031,1.217,1.262,2.158,1.379C1480.49,295.776,1480.67,295.809,1480.8,295.83Zm.194-12.286a6.261,6.261,0,0,0-4.164,1.573,1.55,1.55,0,0,0,.565,2.749,5.766,5.766,0,0,0,5.658-1.288,1.511,1.511,0,0,0-.558-2.632A10.147,10.147,0,0,0,1481,283.544Zm1.378,19.836a6.064,6.064,0,0,0,3.879-1.74,1.457,1.457,0,0,0-.311-2.449,5.5,5.5,0,0,0-6.224,1.364,1.423,1.423,0,0,0,.57,2.277A12.541,12.541,0,0,0,1482.375,303.379Z" transform="translate(-1456.767 -280.573)" fill="#dc955f"/>
  <path id="Path_415" data-name="Path 415" d="M1476.317,433.58c.008,3.165-2.049,4.579-5.088,3.64-4.065-1.256-8.1-2.61-12.148-3.922-.694-.225-1.387-.455-2.082-.676a13.234,13.234,0,0,1-9.589-10.551c-1.039-4.982-2.119-9.955-3.145-14.939-.469-2.278.64-4.183,2.642-4.446a6.012,6.012,0,0,1,2.51.256c5.132,1.619,10.293,3.168,15.347,5.006a12.486,12.486,0,0,1,8.18,9.342c1.2,5.132,2.191,10.311,3.266,15.471A7.688,7.688,0,0,1,1476.317,433.58ZM1468.734,416a5.575,5.575,0,0,0-3.786-4.576c-1.354-.356-2.4.494-2.123,1.851a5.421,5.421,0,0,0,3.745,4.327A1.51,1.51,0,0,0,1468.734,416Zm-20.853-7.912a5.565,5.565,0,0,0,3.943,4.725,1.53,1.53,0,0,0,1.963-1.717,5.7,5.7,0,0,0-3.722-4.541C1448.749,406.23,1447.889,406.833,1447.881,408.092Zm4.838,13.594a5.12,5.12,0,0,0-1.228.9,1.672,1.672,0,0,0-.215,1.208,5.481,5.481,0,0,0,3.562,4.272,1.571,1.571,0,0,0,2.345-1.21C1457.437,424.815,1454.889,421.885,1452.719,421.686Zm13.509,6.693a5.564,5.564,0,0,0,3.988,4.69,1.579,1.579,0,0,0,1.942-1.7,5.667,5.667,0,0,0-3.9-4.59C1466.985,426.513,1466.228,427.111,1466.228,428.379Z" transform="translate(-1444.157 -380.373)" fill="#dc955f"/>
</svg>
