<svg id="Component_41_1" data-name="Component 41 – 1" xmlns="http://www.w3.org/2000/svg" width="54.311" height="54.188" viewBox="0 0 54.311 54.188">
  <path id="Path_1146" data-name="Path 1146" d="M195.691,542.719H141.707a4.848,4.848,0,0,1,2.325-5.893,33.2,33.2,0,0,1,9.678-3.581c.752-.184,1.513-.349,2.28-.458a6.792,6.792,0,0,0,4.583-2.776,21.866,21.866,0,0,0,1.671-2.567c.848-1.529.817-1.543-.468-2.7a24.977,24.977,0,0,1-5.6-8.267,8.744,8.744,0,0,0-1-1.589,7.983,7.983,0,0,1-1.736-5.214c.04-1.486.533-2.1,1.766-2.453-.11-1.937-.273-3.865-.321-5.8-.209-8.442,5.921-12.064,11.507-12.744a15.823,15.823,0,0,1,11.03,2.357,10.822,10.822,0,0,1,4.982,9.207c.058,2.107-.208,4.221-.325,6.332-.011.206,0,.414,0,.615a2.277,2.277,0,0,1,1.827,2.582,8.036,8.036,0,0,1-1.81,5.191,7.145,7.145,0,0,0-.9,1.41c-1.6,3.412-3.4,6.668-6.453,9.049a.907.907,0,0,0-.2.857A49.139,49.139,0,0,0,177.692,531c.93,1.16,2.4,1.464,3.831,1.837,3.2.831,6.351,1.838,9.511,2.808a8.367,8.367,0,0,1,1.514.747C195.422,537.984,196.067,539.262,195.691,542.719Z" transform="translate(-141.477 -488.531)" fill="#c2977b"/>
</svg>
