<svg xmlns="http://www.w3.org/2000/svg" width="66.37" height="63.619" viewBox="0 0 66.37 63.619">
  <g id="Group_1289" data-name="Group 1289" transform="translate(397.359 -302.27)">
    <path id="Path_990" data-name="Path 990" d="M-330.993,374.137q0-20.653,0-41.306c0-3.325-1.654-5.936-4.618-6.587a41.282,41.282,0,0,0-6.53-.411c0,1.371.016,2.426,0,3.479a5.126,5.126,0,0,1-4.984,5.248,5.065,5.065,0,0,1-5.062-5.148c-.03-1.1,0-2.2,0-3.39H-375.68c0,1.247.035,2.394-.007,3.538a5.119,5.119,0,0,1-5.093,5,5.081,5.081,0,0,1-4.962-4.976c-.035-.876-.051-1.758,0-2.633.045-.8-.285-1.058-1.05-1.035-1.339.04-2.68,0-4.019.017a6.355,6.355,0,0,0-6.522,6.469q-.046,22.039,0,44.078a6.25,6.25,0,0,0,6.407,6.42q26.752.039,53.5,0A6.314,6.314,0,0,0-331,376.494C-330.98,375.708-330.993,374.923-330.993,374.137Zm-5.735,3.427h-54.866V339.258h54.866Z" transform="translate(0 -17.03)" fill="#9aa1b2"/>
    <path id="Path_991" data-name="Path 991" d="M-225.122,315.944a3.144,3.144,0,0,0,3.237-3.228c.037-1.2.007-2.4.008-3.593s.032-2.4-.006-3.593a3.178,3.178,0,0,0-3.219-3.26,3.154,3.154,0,0,0-3.165,3.17c-.06,2.44-.051,4.884,0,7.324A3.132,3.132,0,0,0-225.122,315.944Z" transform="translate(-122.178 0)" fill="#9aa1b2"/>
    <path id="Path_992" data-name="Path 992" d="M-346.11,315.952a3.119,3.119,0,0,0,3.223-3.086c.052-1.242.01-2.488.008-3.732,0-1.29.052-2.583-.015-3.869a3.1,3.1,0,0,0-3.171-2.988,3.125,3.125,0,0,0-3.164,3.017c-.071,2.532-.066,5.069-.006,7.6A3.114,3.114,0,0,0-346.11,315.952Z" transform="translate(-34.748 -0.005)" fill="#9aa1b2"/>
    <path id="Path_993" data-name="Path 993" d="M-300.93,394.009q5.813.072,11.627-.006c.3,0,.844-.464.851-.723.065-2.528.039-5.058.039-7.716h-13.392c0,2.646-.026,5.176.038,7.7C-301.76,393.533-301.225,394.005-300.93,394.009Z" transform="translate(-69.057 -60.2)" fill="#9aa1b2"/>
    <path id="Path_994" data-name="Path 994" d="M-301.493,437.1h9.835c3.48,0,3.48,0,3.48-3.446,0-1.681,0-3.361,0-5.053h-13.316Z" transform="translate(-69.286 -91.304)" fill="#9aa1b2"/>
    <path id="Path_995" data-name="Path 995" d="M-301.305,471.807v8.467c4.244,0,8.343.013,12.442-.029.271,0,.765-.424.77-.659.056-2.567.035-5.135.035-7.779Z" transform="translate(-69.422 -122.532)" fill="#9aa1b2"/>
    <path id="Path_996" data-name="Path 996" d="M-238.042,480.24h13.121v-8.379h-13.121Z" transform="translate(-115.145 -122.571)" fill="#9aa1b2"/>
    <path id="Path_998" data-name="Path 998" d="M-238.1,437.076h13.176v-8.392H-238.1Z" transform="translate(-115.102 -91.365)" fill="#9aa1b2"/>
    <path id="Path_999" data-name="Path 999" d="M-364.646,437.109h13.158v-8.367h-13.158Z" transform="translate(-23.643 -91.407)" fill="#9aa1b2"/>
    <path id="Path_1000" data-name="Path 1000" d="M-224.937,385.525h-13.181v8.387h13.181Z" transform="translate(-115.09 -60.172)" fill="#9aa1b2"/>
    <path id="Path_1001" data-name="Path 1001" d="M-351.545,385.381H-364.7v8.412h13.156Z" transform="translate(-23.603 -60.068)" fill="#9aa1b2"/>
  </g>
</svg>
