<svg id="Group_1199" data-name="Group 1199" xmlns="http://www.w3.org/2000/svg" xmlns:xlink="http://www.w3.org/1999/xlink" width="38.25" height="45.461" viewBox="0 0 38.25 45.461">
  <defs>
    <clipPath id="clip-path">
      <rect id="Rectangle_929" data-name="Rectangle 929" width="38.25" height="45.461" fill="#aab0e2"/>
    </clipPath>
  </defs>
  <g id="Group_1184" data-name="Group 1184" clip-path="url(#clip-path)">
    <path id="Path_1185" data-name="Path 1185" d="M60.917,127.994a1.74,1.74,0,0,0-1.862,1.348A3.082,3.082,0,0,0,59,130.1q0,11.883,0,23.766a1.854,1.854,0,0,1-2.069,2.1q-10.187,0-20.375,0a1.831,1.831,0,0,1-2.034-2.017q-.005-4.07-.006-8.141,0-7.977,0-15.954a1.75,1.75,0,1,0-3.49.032q-.006,6.119,0,12.238,0,5.928,0,11.856a5.366,5.366,0,0,0,5.494,5.48q10.242,0,20.484,0a5.4,5.4,0,0,0,5.487-5.5q0-11.883,0-23.766c0-.164.008-.328,0-.492a1.858,1.858,0,0,0-1.572-1.707" transform="translate(-27.636 -114)" fill="#aab0e2"/>
    <path id="Path_1186" data-name="Path 1186" d="M36.423,7q-3.96,0-7.919,0h-.64V6.359c0-1.511.007-3.023,0-4.534A1.743,1.743,0,0,0,26.041,0Q19.132,0,12.223,0a1.745,1.745,0,0,0-1.837,1.855c0,1.511,0,3.023,0,4.534V7H9.711Q5.752,7,1.792,7A1.593,1.593,0,0,0,0,8.663a1.735,1.735,0,0,0,1.8,1.827q17.313,0,34.626,0A1.622,1.622,0,0,0,38.25,8.784,1.7,1.7,0,0,0,36.423,7m-12.1-.04H13.9V3.524H24.325Z" transform="translate(0 0)" fill="#aab0e2"/>
    <path id="Path_1187" data-name="Path 1187" d="M130.658,161.918a1.745,1.745,0,1,0-3.485-.06q-.021,6.91,0,13.82a1.659,1.659,0,0,0,1.774,1.781,1.721,1.721,0,0,0,1.727-1.831c-.047-2.275-.013-4.552-.013-6.828q0-3.442,0-6.883" transform="translate(-113.268 -142.564)" fill="#aab0e2"/>
    <path id="Path_1188" data-name="Path 1188" d="M190.769,175.568a1.607,1.607,0,0,0,1.693,1.726,1.666,1.666,0,0,0,1.786-1.718c.017-4.624.01-9.248,0-13.873a1.748,1.748,0,0,0-.667-1.434,1.734,1.734,0,0,0-2.818,1.316q-.006,3.5,0,6.991h0c0,2.33-.012,4.661.006,6.991" transform="translate(-169.917 -142.402)" fill="#aab0e2"/>
  </g>
</svg>
