<svg id="Group_1282" data-name="Group 1282" xmlns="http://www.w3.org/2000/svg" xmlns:xlink="http://www.w3.org/1999/xlink" width="56.68" height="51" viewBox="0 0 56.68 51">
  <defs>
    <clipPath id="clip-path">
      <rect id="Rectangle_1031" data-name="Rectangle 1031" width="56.68" height="51" fill="#fff"/>
    </clipPath>
  </defs>
  <g id="Group_1282-2" data-name="Group 1282" clip-path="url(#clip-path)">
    <path id="Path_1197" data-name="Path 1197" d="M28.3,51Q17.008,51,5.72,51A5.577,5.577,0,0,1,0,45.32q0-17,0-33.992a5.584,5.584,0,0,1,5.651-5.66c2.745,0,5.49.021,8.234-.024a1.862,1.862,0,0,0,1.191-.521C16.544,3.59,17.94,1.988,19.4.445A1.5,1.5,0,0,1,20.373.02q7.968-.039,15.937,0a1.5,1.5,0,0,1,.975.425c1.458,1.543,2.854,3.145,4.321,4.678a1.861,1.861,0,0,0,1.191.521c2.773.045,5.548.019,8.322.025a5.577,5.577,0,0,1,5.558,5.571q.006,17.084,0,34.169A5.573,5.573,0,0,1,51.051,51Q39.674,51,28.3,51M42.476,28.345A14.137,14.137,0,1,0,28.441,42.471,14.181,14.181,0,0,0,42.476,28.345" transform="translate(0 -0.001)" fill="#fff"/>
    <path id="Path_1198" data-name="Path 1198" d="M117.927,126.994a9.062,9.062,0,1,1,9.1-9.021,8.928,8.928,0,0,1-9.1,9.021" transform="translate(-89.627 -89.599)" fill="#fff"/>
  </g>
</svg>
