<svg id="Group_1230" data-name="Group 1230" xmlns="http://www.w3.org/2000/svg" width="186.389" height="186.391" viewBox="0 0 186.389 186.391">
  <ellipse id="Ellipse_24" data-name="Ellipse 24" cx="93.194" cy="93.195" rx="93.194" ry="93.195" transform="translate(0 0)" fill="#3d3e48"/>
  <path id="Path_1014" data-name="Path 1014" d="M233.131,600.071c-3.615-.939-7.32-1.706-9.669-4.633a124.2,124.2,0,0,1-7.963-11.91,2.289,2.289,0,0,1,.5-2.163c7.7-6.01,12.253-14.227,16.286-22.839a18.043,18.043,0,0,1,2.266-3.558,20.283,20.283,0,0,0,4.568-13.1c-.007-3.8-1.306-5.493-4.611-6.517,0-.507-.025-1.031.007-1.552.293-5.329.964-10.665.817-15.983-.261-9.754-4.294-17.756-12.574-23.239-8.47-5.611-17.846-7.167-27.839-5.95-14.1,1.717-29.57,10.857-29.042,32.165.121,4.875.532,9.74.81,14.63-3.112.9-4.358,2.442-4.458,6.193a20.147,20.147,0,0,0,4.383,13.159,21.951,21.951,0,0,1,2.534,4.012c3.633,7.692,7.7,15.079,14.145,20.865,3.244,2.912,3.323,2.948,1.181,6.806a55.257,55.257,0,0,1-4.219,6.478,17.145,17.145,0,0,1-11.568,7.006c-1.935.275-3.855.692-5.753,1.156a108.128,108.128,0,0,0-17.789,5.614,93.171,93.171,0,0,0,110.786.083C248.357,604.461,240.8,602.066,233.131,600.071Z" transform="translate(-107.402 -438.614)" fill="#52535e"/>
</svg>
