<svg id="Group_1272" data-name="Group 1272" xmlns="http://www.w3.org/2000/svg" xmlns:xlink="http://www.w3.org/1999/xlink" width="119.083" height="119.453" viewBox="0 0 119.083 119.453">
  <defs>
    <clipPath id="clip-path">
      <rect id="Rectangle_858" data-name="Rectangle 858" width="119.083" height="119.453" fill="#3ddaf3"/>
    </clipPath>
  </defs>
  <g id="Group_1098" data-name="Group 1098" clip-path="url(#clip-path)">
    <path id="Path_1143" data-name="Path 1143" d="M118.626,56.144c-1.1-4.448-4.179-7.428-7.389-10.2-4.014-3.46-6.819-7.183-5.338-12.82,0-1.39.007-2.781,0-4.173-.049-9.621-6.016-15.639-15.594-15.711-3.179-.024-6.367.133-9.533-.074a6.411,6.411,0,0,1-3.6-1.484c-2.665-2.377-5.045-5.07-7.662-7.5C63.521-1.383,55.652-1.4,49.67,4.151c-2.62,2.43-5,5.123-7.664,7.5a6.354,6.354,0,0,1-3.592,1.513c-3.465.2-6.952,0-10.427.092-8.561.223-14.5,6.188-14.737,14.755-.113,4.163.967,8.79-.52,12.363s-5.554,6.049-8.4,9.087c-5.8,6.18-5.763,14.107.064,20.29,2.856,3.03,6.905,5.525,8.38,9.1s.359,8.207.486,12.372c.26,8.547,6.314,15.171,14.813,14.474,9.022-.74,15.5,1.957,21.375,8.836,5.591,6.544,14.628,6.554,20.214.033,5.874-6.856,12.322-9.612,21.36-8.876,8.645.705,14.677-5.988,14.866-14.717.071-3.277-.176-6.574.1-9.829a8.132,8.132,0,0,1,1.848-4.34c2.393-2.778,5.238-5.167,7.644-7.935a13.509,13.509,0,0,0,3.15-12.73M45.3,35.739a9.522,9.522,0,1,1-9.566,9.707A9.731,9.731,0,0,1,45.3,35.739M43.977,80.233a18.423,18.423,0,0,1-2.938,2.1c-3.52-.117-5.134-3.029-3.725-5.406a9.636,9.636,0,0,1,1.567-1.774q18.086-18.1,36.2-36.174c.816-.813,1.868-1.863,2.853-1.911A4.609,4.609,0,0,1,81.46,38.47c.637.888.419,2.546.221,3.812-.1.658-.941,1.227-1.5,1.784Q62.1,62.167,43.977,80.233M73.987,83.4A9.522,9.522,0,1,1,83.4,73.834,9.718,9.718,0,0,1,73.987,83.4" transform="translate(0 0)" fill="#3ddaf3"/>
    <path id="Path_1144" data-name="Path 1144" d="M73.535,77.048a3.509,3.509,0,1,0-3.509-3.509,3.508,3.508,0,0,0,3.509,3.509" transform="translate(-28.276 -28.278)" fill="#3ddaf3"/>
    <path id="Path_1145" data-name="Path 1145" d="M121.531,118.026a3.509,3.509,0,1,0,3.509,3.509,3.509,3.509,0,0,0-3.509-3.509" transform="translate(-47.657 -47.658)" fill="#3ddaf3"/>
  </g>
</svg>
