<svg id="time-left" xmlns="http://www.w3.org/2000/svg" width="39.199" height="37.825" viewBox="0 0 39.199 37.825">
  <g id="Layer_2_16_" transform="translate(0 0)">
    <g id="Group_1" data-name="Group 1">
      <path id="Path_40" data-name="Path 40" d="M254.936,423.2c-.323.078-.653.148-.98.206a1.517,1.517,0,0,0-.62,2.758,1.607,1.607,0,0,0,1.194.254c.39-.07.782-.153,1.167-.246a1.529,1.529,0,0,0,1.148-1.856A1.579,1.579,0,0,0,254.936,423.2Z" transform="translate(-231.377 -388.635)" fill="#9eabee"/>
      <path id="Path_41" data-name="Path 41" d="M412.917,139.227a1.532,1.532,0,0,0,.587.77,1.613,1.613,0,0,0,1.4.2,1.523,1.523,0,0,0,1-1.935c-.125-.366-.263-.733-.41-1.09a1.591,1.591,0,0,0-2.048-.854,1.517,1.517,0,0,0-.878,1.991C412.7,138.611,412.812,138.92,412.917,139.227Z" transform="translate(-377.704 -125.192)" fill="#9eabee"/>
      <path id="Path_42" data-name="Path 42" d="M322.509,394.165c-.278.178-.565.351-.854.513a1.509,1.509,0,0,0-.578,2.092,1.544,1.544,0,0,0,.456.487,1.615,1.615,0,0,0,1.7.074c.344-.193.685-.4,1.016-.61a1.506,1.506,0,0,0,.446-2.122A1.6,1.6,0,0,0,322.509,394.165Z" transform="translate(-293.829 -361.787)" fill="#9eabee"/>
      <path id="Path_43" data-name="Path 43" d="M430.785,208.783a1.576,1.576,0,0,0-3.149.12c.013.323.016.651.009.974a1.516,1.516,0,0,0,.669,1.287,1.6,1.6,0,0,0,.871.279,1.556,1.556,0,0,0,1.61-1.5C430.8,209.559,430.8,209.169,430.785,208.783Z" transform="translate(-391.6 -190.47)" fill="#9eabee"/>
      <path id="Path_44" data-name="Path 44" d="M379.965,344.375a1.605,1.605,0,0,0-2.206.306c-.2.259-.411.515-.626.762a1.5,1.5,0,0,0,.178,2.159c.038.031.076.06.116.087a1.608,1.608,0,0,0,2.106-.26c.258-.294.509-.6.748-.909A1.5,1.5,0,0,0,379.965,344.375Z" transform="translate(-345.009 -316.026)" fill="#9eabee"/>
      <path id="Path_45" data-name="Path 45" d="M416.159,279.422a1.585,1.585,0,0,0-1.975,1c-.1.308-.21.618-.329.922a1.508,1.508,0,0,0,.564,1.8,1.6,1.6,0,0,0,2.381-.706c.141-.361.273-.729.391-1.1A1.524,1.524,0,0,0,416.159,279.422Z" transform="translate(-378.887 -256.61)" fill="#9eabee"/>
      <path id="Path_46" data-name="Path 46" d="M16.684,36.473a16.61,16.61,0,0,1-4.042-1.249c-.015-.008-.029-.016-.045-.024-.3-.138-.6-.286-.9-.441l0,0a16.9,16.9,0,0,1-1.568-.952A15.718,15.718,0,0,1,6.157,11.534,16.159,16.159,0,0,1,10.2,7.625l.056-.038a16.866,16.866,0,0,1,18.461-.144L27.485,9.172c-.342.481-.132.832.467.78L33.3,9.486a.859.859,0,0,0,.8-1.12L32.662,3.337c-.161-.564-.572-.631-.915-.15L30.513,4.92a19.913,19.913,0,0,0-14.26-2.947q-.757.127-1.492.31l-.01,0-.057.015A19.467,19.467,0,0,0,3.919,9.318c-.023.026-.046.052-.067.08-.089.117-.178.237-.265.357-.142.2-.282.4-.416.6-.017.024-.03.049-.044.073A18.487,18.487,0,0,0,.021,21.565c0,.013,0,.026,0,.039.018.384.049.774.092,1.157,0,.025.008.048.012.073.044.386.1.772.168,1.159A18.733,18.733,0,0,0,5.777,34.244l.02.02.007.006a19.838,19.838,0,0,0,10.324,5.218,1.572,1.572,0,0,0,1.829-1.237A1.536,1.536,0,0,0,16.684,36.473Z" transform="translate(0 -1.688)" fill="#9eabee"/>
      <path id="Path_47" data-name="Path 47" d="M207.263,83.2a1.258,1.258,0,0,0-1.276,1.239V96.784l11.617,5.837a1.3,1.3,0,0,0,.584.138,1.28,1.28,0,0,0,1.134-.67,1.222,1.222,0,0,0-.547-1.67l-10.239-5.145V84.437A1.257,1.257,0,0,0,207.263,83.2Z" transform="translate(-188.63 -76.522)" fill="#9eabee"/>
    </g>
  </g>
</svg>
